<mxfile host="app.diagrams.net" agent="Mozilla/5.0 (Windows NT 10.0; Win64; x64) AppleWebKit/537.36 (KHTML, like Gecko) Chrome/131.0.0.0 Safari/537.36" version="25.0.1">
  <diagram id="C5RBs43oDa-KdzZeNtuy" name="Page-1">
    <mxGraphModel dx="1434" dy="772" grid="1" gridSize="10" guides="1" tooltips="1" connect="1" arrows="1" fold="1" page="1" pageScale="1" pageWidth="827" pageHeight="1169" math="0" shadow="0">
      <root>
        <mxCell id="WIyWlLk6GJQsqaUBKTNV-0" />
        <mxCell id="WIyWlLk6GJQsqaUBKTNV-1" parent="WIyWlLk6GJQsqaUBKTNV-0" />
        <mxCell id="2qKx916EFos7ZfOCecO0-24" value="Viaggi" style="swimlane;fontStyle=1;align=center;verticalAlign=top;childLayout=stackLayout;horizontal=1;startSize=26;horizontalStack=0;resizeParent=1;resizeParentMax=0;resizeLast=0;collapsible=1;marginBottom=0;whiteSpace=wrap;html=1;" vertex="1" parent="WIyWlLk6GJQsqaUBKTNV-1">
          <mxGeometry x="292" y="70" width="243" height="364" as="geometry" />
        </mxCell>
        <mxCell id="2qKx916EFos7ZfOCecO0-18" value="- Prezzo: int" style="text;html=1;align=center;verticalAlign=middle;resizable=0;points=[];autosize=1;strokeColor=none;fillColor=none;" vertex="1" parent="2qKx916EFos7ZfOCecO0-24">
          <mxGeometry y="26" width="243" height="30" as="geometry" />
        </mxCell>
        <mxCell id="2qKx916EFos7ZfOCecO0-17" value="- Giorni: int" style="text;html=1;align=center;verticalAlign=middle;resizable=0;points=[];autosize=1;strokeColor=none;fillColor=none;" vertex="1" parent="2qKx916EFos7ZfOCecO0-24">
          <mxGeometry y="56" width="243" height="30" as="geometry" />
        </mxCell>
        <mxCell id="2qKx916EFos7ZfOCecO0-16" value="- Destinazioni: String" style="text;html=1;align=center;verticalAlign=middle;resizable=0;points=[];autosize=1;strokeColor=none;fillColor=none;" vertex="1" parent="2qKx916EFos7ZfOCecO0-24">
          <mxGeometry y="86" width="243" height="30" as="geometry" />
        </mxCell>
        <mxCell id="2qKx916EFos7ZfOCecO0-19" value="- PrezzoBase: int" style="text;html=1;align=center;verticalAlign=middle;resizable=0;points=[];autosize=1;strokeColor=none;fillColor=none;" vertex="1" parent="2qKx916EFos7ZfOCecO0-24">
          <mxGeometry y="116" width="243" height="30" as="geometry" />
        </mxCell>
        <mxCell id="2qKx916EFos7ZfOCecO0-26" value="" style="line;strokeWidth=1;fillColor=none;align=left;verticalAlign=middle;spacingTop=-1;spacingLeft=3;spacingRight=3;rotatable=0;labelPosition=right;points=[];portConstraint=eastwest;strokeColor=inherit;" vertex="1" parent="2qKx916EFos7ZfOCecO0-24">
          <mxGeometry y="146" width="243" height="8" as="geometry" />
        </mxCell>
        <mxCell id="2qKx916EFos7ZfOCecO0-29" value="+ getPrezzo(): int" style="text;html=1;align=center;verticalAlign=middle;resizable=0;points=[];autosize=1;strokeColor=none;fillColor=none;" vertex="1" parent="2qKx916EFos7ZfOCecO0-24">
          <mxGeometry y="154" width="243" height="30" as="geometry" />
        </mxCell>
        <mxCell id="2qKx916EFos7ZfOCecO0-30" value="+ getGiorni(): int" style="text;html=1;align=center;verticalAlign=middle;resizable=0;points=[];autosize=1;strokeColor=none;fillColor=none;" vertex="1" parent="2qKx916EFos7ZfOCecO0-24">
          <mxGeometry y="184" width="243" height="30" as="geometry" />
        </mxCell>
        <mxCell id="2qKx916EFos7ZfOCecO0-31" value="+ getDestinazioni() : String" style="text;html=1;align=center;verticalAlign=middle;resizable=0;points=[];autosize=1;strokeColor=none;fillColor=none;" vertex="1" parent="2qKx916EFos7ZfOCecO0-24">
          <mxGeometry y="214" width="243" height="30" as="geometry" />
        </mxCell>
        <mxCell id="2qKx916EFos7ZfOCecO0-32" value="+ getPrezzoBase(): int" style="text;html=1;align=center;verticalAlign=middle;resizable=0;points=[];autosize=1;strokeColor=none;fillColor=none;" vertex="1" parent="2qKx916EFos7ZfOCecO0-24">
          <mxGeometry y="244" width="243" height="30" as="geometry" />
        </mxCell>
        <mxCell id="2qKx916EFos7ZfOCecO0-33" value="+ setPrezzo(int prezzo): void" style="text;html=1;align=center;verticalAlign=middle;resizable=0;points=[];autosize=1;strokeColor=none;fillColor=none;" vertex="1" parent="2qKx916EFos7ZfOCecO0-24">
          <mxGeometry y="274" width="243" height="30" as="geometry" />
        </mxCell>
        <mxCell id="2qKx916EFos7ZfOCecO0-35" value="+ setDestinazion(String destinazioni): void" style="text;html=1;align=center;verticalAlign=middle;resizable=0;points=[];autosize=1;strokeColor=none;fillColor=none;" vertex="1" parent="2qKx916EFos7ZfOCecO0-24">
          <mxGeometry y="304" width="243" height="30" as="geometry" />
        </mxCell>
        <mxCell id="2qKx916EFos7ZfOCecO0-34" value="+ setGiorni(int giorni): void" style="text;html=1;align=center;verticalAlign=middle;resizable=0;points=[];autosize=1;strokeColor=none;fillColor=none;" vertex="1" parent="2qKx916EFos7ZfOCecO0-24">
          <mxGeometry y="334" width="243" height="30" as="geometry" />
        </mxCell>
        <mxCell id="2qKx916EFos7ZfOCecO0-36" value="ViaggiPasti" style="swimlane;fontStyle=1;align=center;verticalAlign=top;childLayout=stackLayout;horizontal=1;startSize=26;horizontalStack=0;resizeParent=1;resizeParentMax=0;resizeLast=0;collapsible=1;marginBottom=0;whiteSpace=wrap;html=1;" vertex="1" parent="WIyWlLk6GJQsqaUBKTNV-1">
          <mxGeometry x="30" y="527" width="340" height="146" as="geometry" />
        </mxCell>
        <mxCell id="2qKx916EFos7ZfOCecO0-37" value="- isPensioneCompleta: boolean" style="text;strokeColor=none;fillColor=none;align=left;verticalAlign=top;spacingLeft=4;spacingRight=4;overflow=hidden;rotatable=0;points=[[0,0.5],[1,0.5]];portConstraint=eastwest;whiteSpace=wrap;html=1;" vertex="1" parent="2qKx916EFos7ZfOCecO0-36">
          <mxGeometry y="26" width="340" height="26" as="geometry" />
        </mxCell>
        <mxCell id="2qKx916EFos7ZfOCecO0-38" value="" style="line;strokeWidth=1;fillColor=none;align=left;verticalAlign=middle;spacingTop=-1;spacingLeft=3;spacingRight=3;rotatable=0;labelPosition=right;points=[];portConstraint=eastwest;strokeColor=inherit;" vertex="1" parent="2qKx916EFos7ZfOCecO0-36">
          <mxGeometry y="52" width="340" height="8" as="geometry" />
        </mxCell>
        <mxCell id="2qKx916EFos7ZfOCecO0-39" value="+ getIsPensioneCompleta(): boolean&amp;nbsp;" style="text;strokeColor=none;fillColor=none;align=left;verticalAlign=top;spacingLeft=4;spacingRight=4;overflow=hidden;rotatable=0;points=[[0,0.5],[1,0.5]];portConstraint=eastwest;whiteSpace=wrap;html=1;" vertex="1" parent="2qKx916EFos7ZfOCecO0-36">
          <mxGeometry y="60" width="340" height="26" as="geometry" />
        </mxCell>
        <mxCell id="2qKx916EFos7ZfOCecO0-40" value="+ setIsPensioneCompleta(boolean isPensioneCompleta): void" style="text;html=1;align=center;verticalAlign=middle;resizable=0;points=[];autosize=1;strokeColor=none;fillColor=none;" vertex="1" parent="2qKx916EFos7ZfOCecO0-36">
          <mxGeometry y="86" width="340" height="30" as="geometry" />
        </mxCell>
        <mxCell id="2qKx916EFos7ZfOCecO0-41" value="+ prezzoFinale(): void" style="text;html=1;align=center;verticalAlign=middle;resizable=0;points=[];autosize=1;strokeColor=none;fillColor=none;" vertex="1" parent="2qKx916EFos7ZfOCecO0-36">
          <mxGeometry y="116" width="340" height="30" as="geometry" />
        </mxCell>
        <mxCell id="2qKx916EFos7ZfOCecO0-42" value="ViaggiVolo" style="swimlane;fontStyle=1;align=center;verticalAlign=top;childLayout=stackLayout;horizontal=1;startSize=26;horizontalStack=0;resizeParent=1;resizeParentMax=0;resizeLast=0;collapsible=1;marginBottom=0;whiteSpace=wrap;html=1;" vertex="1" parent="WIyWlLk6GJQsqaUBKTNV-1">
          <mxGeometry x="470" y="527" width="340" height="146" as="geometry" />
        </mxCell>
        <mxCell id="2qKx916EFos7ZfOCecO0-43" value="- isAndataRitorno: boolean" style="text;strokeColor=none;fillColor=none;align=left;verticalAlign=top;spacingLeft=4;spacingRight=4;overflow=hidden;rotatable=0;points=[[0,0.5],[1,0.5]];portConstraint=eastwest;whiteSpace=wrap;html=1;" vertex="1" parent="2qKx916EFos7ZfOCecO0-42">
          <mxGeometry y="26" width="340" height="26" as="geometry" />
        </mxCell>
        <mxCell id="2qKx916EFos7ZfOCecO0-44" value="" style="line;strokeWidth=1;fillColor=none;align=left;verticalAlign=middle;spacingTop=-1;spacingLeft=3;spacingRight=3;rotatable=0;labelPosition=right;points=[];portConstraint=eastwest;strokeColor=inherit;" vertex="1" parent="2qKx916EFos7ZfOCecO0-42">
          <mxGeometry y="52" width="340" height="8" as="geometry" />
        </mxCell>
        <mxCell id="2qKx916EFos7ZfOCecO0-45" value="+ getIsandataRitorno(): boolean&amp;nbsp;" style="text;strokeColor=none;fillColor=none;align=left;verticalAlign=top;spacingLeft=4;spacingRight=4;overflow=hidden;rotatable=0;points=[[0,0.5],[1,0.5]];portConstraint=eastwest;whiteSpace=wrap;html=1;" vertex="1" parent="2qKx916EFos7ZfOCecO0-42">
          <mxGeometry y="60" width="340" height="26" as="geometry" />
        </mxCell>
        <mxCell id="2qKx916EFos7ZfOCecO0-46" value="+ setIsAndataRitorno(boolean isAndataRitorno): void" style="text;html=1;align=center;verticalAlign=middle;resizable=0;points=[];autosize=1;strokeColor=none;fillColor=none;" vertex="1" parent="2qKx916EFos7ZfOCecO0-42">
          <mxGeometry y="86" width="340" height="30" as="geometry" />
        </mxCell>
        <mxCell id="2qKx916EFos7ZfOCecO0-47" value="+ prezzoFinale(): void" style="text;html=1;align=center;verticalAlign=middle;resizable=0;points=[];autosize=1;strokeColor=none;fillColor=none;" vertex="1" parent="2qKx916EFos7ZfOCecO0-42">
          <mxGeometry y="116" width="340" height="30" as="geometry" />
        </mxCell>
        <mxCell id="2qKx916EFos7ZfOCecO0-52" value="ViaggiEscursioni" style="swimlane;fontStyle=1;align=center;verticalAlign=top;childLayout=stackLayout;horizontal=1;startSize=26;horizontalStack=0;resizeParent=1;resizeParentMax=0;resizeLast=0;collapsible=1;marginBottom=0;whiteSpace=wrap;html=1;" vertex="1" parent="WIyWlLk6GJQsqaUBKTNV-1">
          <mxGeometry x="40" y="740" width="340" height="150" as="geometry" />
        </mxCell>
        <mxCell id="2qKx916EFos7ZfOCecO0-53" value="- escursioni: int" style="text;strokeColor=none;fillColor=none;align=left;verticalAlign=top;spacingLeft=4;spacingRight=4;overflow=hidden;rotatable=0;points=[[0,0.5],[1,0.5]];portConstraint=eastwest;whiteSpace=wrap;html=1;" vertex="1" parent="2qKx916EFos7ZfOCecO0-52">
          <mxGeometry y="26" width="340" height="26" as="geometry" />
        </mxCell>
        <mxCell id="2qKx916EFos7ZfOCecO0-54" value="" style="line;strokeWidth=1;fillColor=none;align=left;verticalAlign=middle;spacingTop=-1;spacingLeft=3;spacingRight=3;rotatable=0;labelPosition=right;points=[];portConstraint=eastwest;strokeColor=inherit;" vertex="1" parent="2qKx916EFos7ZfOCecO0-52">
          <mxGeometry y="52" width="340" height="8" as="geometry" />
        </mxCell>
        <mxCell id="2qKx916EFos7ZfOCecO0-60" value="+ getEscursioni (): int" style="text;html=1;align=center;verticalAlign=middle;resizable=0;points=[];autosize=1;strokeColor=none;fillColor=none;" vertex="1" parent="2qKx916EFos7ZfOCecO0-52">
          <mxGeometry y="60" width="340" height="30" as="geometry" />
        </mxCell>
        <mxCell id="2qKx916EFos7ZfOCecO0-56" value="+ setEscursioni(int escursioni): void" style="text;html=1;align=center;verticalAlign=middle;resizable=0;points=[];autosize=1;strokeColor=none;fillColor=none;" vertex="1" parent="2qKx916EFos7ZfOCecO0-52">
          <mxGeometry y="90" width="340" height="30" as="geometry" />
        </mxCell>
        <mxCell id="2qKx916EFos7ZfOCecO0-57" value="+ prezzoFinale(): void" style="text;html=1;align=center;verticalAlign=middle;resizable=0;points=[];autosize=1;strokeColor=none;fillColor=none;" vertex="1" parent="2qKx916EFos7ZfOCecO0-52">
          <mxGeometry y="120" width="340" height="30" as="geometry" />
        </mxCell>
        <mxCell id="2qKx916EFos7ZfOCecO0-62" style="edgeStyle=orthogonalEdgeStyle;rounded=0;orthogonalLoop=1;jettySize=auto;html=1;exitX=0.5;exitY=0;exitDx=0;exitDy=0;entryX=0.523;entryY=1.133;entryDx=0;entryDy=0;entryPerimeter=0;" edge="1" parent="WIyWlLk6GJQsqaUBKTNV-1" source="2qKx916EFos7ZfOCecO0-36" target="2qKx916EFos7ZfOCecO0-34">
          <mxGeometry relative="1" as="geometry" />
        </mxCell>
        <mxCell id="2qKx916EFos7ZfOCecO0-63" style="edgeStyle=orthogonalEdgeStyle;rounded=0;orthogonalLoop=1;jettySize=auto;html=1;entryX=0.576;entryY=1.1;entryDx=0;entryDy=0;entryPerimeter=0;" edge="1" parent="WIyWlLk6GJQsqaUBKTNV-1" source="2qKx916EFos7ZfOCecO0-42" target="2qKx916EFos7ZfOCecO0-34">
          <mxGeometry relative="1" as="geometry" />
        </mxCell>
        <mxCell id="2qKx916EFos7ZfOCecO0-64" style="edgeStyle=orthogonalEdgeStyle;rounded=0;orthogonalLoop=1;jettySize=auto;html=1;exitX=0.5;exitY=0;exitDx=0;exitDy=0;entryX=0.529;entryY=1.133;entryDx=0;entryDy=0;entryPerimeter=0;" edge="1" parent="WIyWlLk6GJQsqaUBKTNV-1" source="2qKx916EFos7ZfOCecO0-52" target="2qKx916EFos7ZfOCecO0-41">
          <mxGeometry relative="1" as="geometry" />
        </mxCell>
      </root>
    </mxGraphModel>
  </diagram>
</mxfile>
